<svg xmlns="http://www.w3.org/2000/svg" xmlns:xlink="http://www.w3.org/1999/xlink" width="500" zoomAndPan="magnify" viewBox="0 0 375 374.999991" height="500" preserveAspectRatio="xMidYMid meet" version="1.0"><defs><g/><clipPath id="id1"><path d="M 84.421875 113 L 186 113 L 186 202.613281 L 84.421875 202.613281 Z M 84.421875 113 " clip-rule="nonzero"/></clipPath><clipPath id="id2"><path d="M 185 66.863281 L 286.171875 66.863281 L 286.171875 156 L 185 156 Z M 185 66.863281 " clip-rule="nonzero"/></clipPath></defs><g clip-path="url(#id1)"><path fill="#0652e9" d="M 152.351562 176.605469 L 152.351562 188.890625 L 96.742188 163.039062 L 96.742188 153.070312 L 152.351562 127.21875 L 152.351562 139.507812 L 110.296875 157.941406 L 110.296875 158.171875 Z M 185.382812 113.566406 L 92.378906 113.566406 C 87.988281 113.566406 84.429688 117.128906 84.429688 121.523438 L 84.429688 194.589844 C 84.429688 198.984375 87.988281 202.546875 92.378906 202.546875 L 159.5625 202.546875 L 185.382812 113.566406 " fill-opacity="1" fill-rule="nonzero"/></g><g clip-path="url(#id2)"><path fill="#7ed957" d="M 273.871094 116.726562 L 218.261719 142.230469 L 218.261719 129.941406 L 261.242188 111.511719 L 261.242188 111.277344 L 218.261719 92.84375 L 218.261719 80.558594 L 273.871094 106.0625 Z M 211.199219 66.90625 L 185.382812 155.882812 L 278.234375 155.882812 C 282.625 155.882812 286.183594 152.324219 286.183594 147.925781 L 286.183594 74.859375 C 286.183594 70.46875 282.625 66.90625 278.234375 66.90625 L 211.199219 66.90625 " fill-opacity="1" fill-rule="nonzero"/></g><g fill="#000000" fill-opacity="1"><g transform="translate(93.83531, 259.769835)"><g><path d="M 18.023438 -20.523438 L 18.023438 -25.441406 L 2.714844 -25.441406 L 2.714844 0 L 8.3125 0 L 8.3125 -10.261719 L 16.621094 -10.261719 L 16.621094 -15.179688 L 8.3125 -15.179688 L 8.3125 -20.523438 Z M 18.023438 -20.523438 "/></g></g></g><g fill="#000000" fill-opacity="1"><g transform="translate(113.772912, 259.769835)"><g><path d="M 2.714844 0 L 8.3125 0 L 8.3125 -25.441406 L 2.714844 -25.441406 Z M 2.714844 0 "/></g></g></g><g fill="#000000" fill-opacity="1"><g transform="translate(126.247782, 259.769835)"><g><path d="M 20.480469 -25.441406 L 2.035156 -25.441406 L 2.035156 -20.480469 L 11.789062 -20.480469 L 0.976562 0 L 20.480469 0 L 20.480469 -4.960938 L 9.753906 -4.960938 Z M 20.480469 -25.441406 "/></g></g></g><g fill="#000000" fill-opacity="1"><g transform="translate(149.450331, 259.769835)"><g><path d="M 20.480469 -25.441406 L 2.035156 -25.441406 L 2.035156 -20.480469 L 11.789062 -20.480469 L 0.976562 0 L 20.480469 0 L 20.480469 -4.960938 L 9.753906 -4.960938 Z M 20.480469 -25.441406 "/></g></g></g><g fill="#000000" fill-opacity="1"><g transform="translate(172.652883, 259.769835)"><g/></g></g><g fill="#000000" fill-opacity="1"><g transform="translate(184.322111, 259.769835)"><g><path d="M 17.808594 -12.890625 C 19.71875 -13.910156 20.949219 -15.691406 20.949219 -18.359375 C 20.949219 -22.855469 17.554688 -25.441406 13.273438 -25.441406 L 2.5 -25.441406 L 2.5 0 L 14.246094 0 C 18.488281 0 21.796875 -2.460938 21.796875 -6.953125 C 21.796875 -10.050781 20.183594 -11.957031 17.808594 -12.890625 Z M 15.351562 -17.765625 C 15.351562 -16.28125 14.121094 -15.011719 12.59375 -15.011719 L 8.097656 -15.011719 L 8.097656 -20.480469 L 12.59375 -20.480469 C 14.121094 -20.480469 15.351562 -19.292969 15.351562 -17.765625 Z M 13.441406 -4.960938 L 8.097656 -4.960938 L 8.097656 -10.429688 L 13.441406 -10.429688 C 15.011719 -10.429688 16.199219 -9.160156 16.199219 -7.675781 C 16.199219 -6.148438 15.011719 -4.960938 13.441406 -4.960938 Z M 13.441406 -4.960938 "/></g></g></g><g fill="#000000" fill-opacity="1"><g transform="translate(208.839129, 259.769835)"><g><path d="M 12.933594 0.339844 C 18.953125 0.339844 23.535156 -3.351562 23.535156 -8.140625 L 23.535156 -25.441406 L 17.9375 -25.441406 L 17.9375 -9.203125 C 17.9375 -6.613281 15.773438 -4.621094 12.933594 -4.621094 C 10.132812 -4.621094 7.972656 -6.613281 7.972656 -9.203125 L 7.972656 -25.441406 L 2.375 -25.441406 L 2.375 -8.140625 C 2.375 -3.351562 6.996094 0.339844 12.933594 0.339844 Z M 12.933594 0.339844 "/></g></g></g><g fill="#000000" fill-opacity="1"><g transform="translate(236.23946, 259.769835)"><g><path d="M 20.480469 -25.441406 L 2.035156 -25.441406 L 2.035156 -20.480469 L 11.789062 -20.480469 L 0.976562 0 L 20.480469 0 L 20.480469 -4.960938 L 9.753906 -4.960938 Z M 20.480469 -25.441406 "/></g></g></g><g fill="#000000" fill-opacity="1"><g transform="translate(259.442012, 259.769835)"><g><path d="M 20.480469 -25.441406 L 2.035156 -25.441406 L 2.035156 -20.480469 L 11.789062 -20.480469 L 0.976562 0 L 20.480469 0 L 20.480469 -4.960938 L 9.753906 -4.960938 Z M 20.480469 -25.441406 "/></g></g></g><g fill="#000000" fill-opacity="1"><g transform="translate(98.874409, 297.521083)"><g><path d="M 5.980469 0 L 6.941406 0 L 3.957031 -8.246094 L 2.980469 -8.246094 L 0 0 L 0.960938 0 L 1.636719 -1.925781 L 5.304688 -1.925781 Z M 1.925781 -2.761719 L 3.476562 -7.203125 L 5.015625 -2.761719 Z M 1.925781 -2.761719 "/></g></g></g><g fill="#000000" fill-opacity="1"><g transform="translate(109.498319, 297.521083)"><g/></g></g><g fill="#000000" fill-opacity="1"><g transform="translate(116.494796, 297.521083)"><g><path d="M 4.617188 -8.246094 L 0.839844 -8.246094 L 0.839844 -7.367188 L 3.738281 -7.367188 L 3.738281 -2.089844 C 3.738281 -1.277344 3.230469 -0.769531 2.527344 -0.769531 C 1.898438 -0.769531 1.414062 -1.210938 1.347656 -1.898438 L 0.453125 -1.703125 C 0.578125 -0.578125 1.375 0.109375 2.527344 0.109375 C 3.78125 0.109375 4.617188 -0.699219 4.617188 -1.992188 Z M 4.617188 -8.246094 "/></g></g></g><g fill="#000000" fill-opacity="1"><g transform="translate(125.621018, 297.521083)"><g><path d="M 6.898438 -0.714844 C 6.597656 -0.714844 6.335938 -0.921875 6.335938 -1.429688 L 6.335938 -5.496094 L 5.484375 -5.496094 L 5.484375 -4.78125 C 4.976562 -5.292969 4.261719 -5.609375 3.476562 -5.609375 C 1.898438 -5.609375 0.617188 -4.328125 0.617188 -2.75 C 0.617188 -1.167969 1.898438 0.109375 3.476562 0.109375 C 4.300781 0.109375 5.042969 -0.273438 5.566406 -0.839844 C 5.746094 -0.273438 6.183594 0.109375 6.832031 0.109375 C 6.980469 0.109375 7.132812 0.0703125 7.242188 0 L 7.242188 -0.714844 Z M 3.476562 -0.742188 C 2.363281 -0.742188 1.46875 -1.636719 1.46875 -2.75 C 1.46875 -3.863281 2.363281 -4.753906 3.476562 -4.753906 C 4.578125 -4.753906 5.484375 -3.863281 5.484375 -2.75 C 5.484375 -1.636719 4.578125 -0.742188 3.476562 -0.742188 Z M 3.476562 -0.742188 "/></g></g></g><g fill="#000000" fill-opacity="1"><g transform="translate(136.712087, 297.521083)"><g><path d="M 4.4375 -5.496094 L 2.75 -0.988281 L 1.042969 -5.496094 L 0.125 -5.496094 L 2.324219 0 L 3.148438 0 L 5.359375 -5.496094 Z M 4.4375 -5.496094 "/></g></g></g><g fill="#000000" fill-opacity="1"><g transform="translate(145.879531, 297.521083)"><g><path d="M 6.898438 -0.714844 C 6.597656 -0.714844 6.335938 -0.921875 6.335938 -1.429688 L 6.335938 -5.496094 L 5.484375 -5.496094 L 5.484375 -4.78125 C 4.976562 -5.292969 4.261719 -5.609375 3.476562 -5.609375 C 1.898438 -5.609375 0.617188 -4.328125 0.617188 -2.75 C 0.617188 -1.167969 1.898438 0.109375 3.476562 0.109375 C 4.300781 0.109375 5.042969 -0.273438 5.566406 -0.839844 C 5.746094 -0.273438 6.183594 0.109375 6.832031 0.109375 C 6.980469 0.109375 7.132812 0.0703125 7.242188 0 L 7.242188 -0.714844 Z M 3.476562 -0.742188 C 2.363281 -0.742188 1.46875 -1.636719 1.46875 -2.75 C 1.46875 -3.863281 2.363281 -4.753906 3.476562 -4.753906 C 4.578125 -4.753906 5.484375 -3.863281 5.484375 -2.75 C 5.484375 -1.636719 4.578125 -0.742188 3.476562 -0.742188 Z M 3.476562 -0.742188 "/></g></g></g><g fill="#000000" fill-opacity="1"><g transform="translate(156.9706, 297.521083)"><g><path d="M 3.078125 0.109375 C 4.480469 0.109375 5.621094 -0.726562 5.621094 -2.171875 C 5.621094 -4.976562 1.609375 -4.289062 1.609375 -6.253906 C 1.609375 -7.078125 2.28125 -7.476562 3.050781 -7.476562 C 3.683594 -7.476562 4.207031 -7.214844 4.535156 -6.75 L 5.222656 -7.324219 C 4.769531 -7.902344 3.972656 -8.355469 3.023438 -8.355469 C 1.757812 -8.355469 0.726562 -7.53125 0.726562 -6.183594 C 0.726562 -3.53125 4.742188 -4.191406 4.742188 -2.144531 C 4.742188 -1.265625 4.011719 -0.769531 3.09375 -0.769531 C 2.15625 -0.769531 1.484375 -1.277344 1.195312 -2.035156 L 0.398438 -1.566406 C 0.824219 -0.550781 1.855469 0.109375 3.078125 0.109375 Z M 3.078125 0.109375 "/></g></g></g><g fill="#000000" fill-opacity="1"><g transform="translate(166.673914, 297.521083)"><g><path d="M 3.476562 0.109375 C 4.753906 0.109375 5.828125 -0.714844 6.199219 -1.871094 L 5.292969 -1.871094 C 4.960938 -1.195312 4.273438 -0.742188 3.476562 -0.742188 C 2.363281 -0.742188 1.46875 -1.621094 1.46875 -2.75 C 1.46875 -3.875 2.363281 -4.753906 3.476562 -4.753906 C 4.273438 -4.753906 4.960938 -4.300781 5.292969 -3.628906 L 6.199219 -3.628906 C 5.828125 -4.78125 4.753906 -5.609375 3.476562 -5.609375 C 1.898438 -5.609375 0.617188 -4.328125 0.617188 -2.75 C 0.617188 -1.167969 1.898438 0.109375 3.476562 0.109375 Z M 3.476562 0.109375 "/></g></g></g><g fill="#000000" fill-opacity="1"><g transform="translate(176.913096, 297.521083)"><g><path d="M 3.683594 -5.609375 C 2.898438 -5.609375 2.269531 -5.265625 1.855469 -4.714844 L 1.855469 -5.496094 L 1.003906 -5.496094 L 1.003906 0 L 1.855469 0 L 1.855469 -2.980469 C 1.855469 -3.984375 2.679688 -4.753906 3.683594 -4.753906 C 3.847656 -4.753906 3.984375 -4.742188 4.109375 -4.699219 L 4.109375 -5.566406 C 3.984375 -5.59375 3.847656 -5.609375 3.683594 -5.609375 Z M 3.683594 -5.609375 "/></g></g></g><g fill="#000000" fill-opacity="1"><g transform="translate(184.775216, 297.521083)"><g><path d="M 1.539062 -6.527344 C 1.855469 -6.527344 2.128906 -6.789062 2.128906 -7.105469 C 2.128906 -7.449219 1.855469 -7.695312 1.539062 -7.695312 C 1.210938 -7.695312 0.933594 -7.449219 0.933594 -7.105469 C 0.933594 -6.789062 1.210938 -6.527344 1.539062 -6.527344 Z M 1.113281 0 L 1.964844 0 L 1.964844 -5.496094 L 1.113281 -5.496094 Z M 1.113281 0 "/></g></g></g><g fill="#000000" fill-opacity="1"><g transform="translate(191.524374, 297.521083)"><g><path d="M 3.863281 -5.609375 C 3.078125 -5.609375 2.378906 -5.292969 1.855469 -4.78125 L 1.855469 -5.496094 L 1.003906 -5.496094 L 1.003906 3.296875 L 1.855469 3.296875 L 1.855469 -0.714844 C 2.378906 -0.207031 3.078125 0.109375 3.863281 0.109375 C 5.441406 0.109375 6.71875 -1.167969 6.71875 -2.75 C 6.71875 -4.328125 5.441406 -5.609375 3.863281 -5.609375 Z M 3.863281 -0.742188 C 2.75 -0.742188 1.855469 -1.636719 1.855469 -2.75 C 1.855469 -3.863281 2.75 -4.753906 3.863281 -4.753906 C 4.976562 -4.753906 5.867188 -3.863281 5.867188 -2.75 C 5.867188 -1.636719 4.976562 -0.742188 3.863281 -0.742188 Z M 3.863281 -0.742188 "/></g></g></g><g fill="#000000" fill-opacity="1"><g transform="translate(202.54675, 297.521083)"><g><path d="M 3.53125 -4.671875 L 3.53125 -5.496094 L 2.0625 -5.496094 L 2.0625 -7.890625 L 1.210938 -7.890625 L 1.210938 -5.496094 L 0.289062 -5.496094 L 0.289062 -4.671875 L 1.210938 -4.671875 L 1.210938 -1.441406 C 1.210938 -0.578125 1.9375 0.109375 2.789062 0.109375 C 3.066406 0.109375 3.367188 0.0273438 3.519531 -0.0703125 L 3.519531 -0.714844 L 2.886719 -0.714844 C 2.445312 -0.714844 2.0625 -1.042969 2.0625 -1.554688 L 2.0625 -4.671875 Z M 3.53125 -4.671875 "/></g></g></g><g fill="#000000" fill-opacity="1"><g transform="translate(210.216511, 297.521083)"><g/></g></g><g fill="#000000" fill-opacity="1"><g transform="translate(217.212994, 297.521083)"><g><path d="M 4.90625 0.109375 C 6.488281 0.109375 7.863281 -0.757812 8.589844 -2.035156 L 7.832031 -2.460938 C 7.269531 -1.441406 6.171875 -0.769531 4.90625 -0.769531 C 3.050781 -0.769531 1.554688 -2.253906 1.554688 -4.125 C 1.554688 -5.992188 3.050781 -7.476562 4.90625 -7.476562 C 6.171875 -7.476562 7.269531 -6.804688 7.832031 -5.785156 L 8.589844 -6.210938 C 7.863281 -7.492188 6.488281 -8.355469 4.90625 -8.355469 C 2.570312 -8.355469 0.671875 -6.460938 0.671875 -4.125 C 0.671875 -1.785156 2.570312 0.109375 4.90625 0.109375 Z M 4.90625 0.109375 "/></g></g></g><g fill="#000000" fill-opacity="1"><g transform="translate(229.939166, 297.521083)"><g><path d="M 3.476562 0.109375 C 5.058594 0.109375 6.335938 -1.167969 6.335938 -2.75 C 6.335938 -4.328125 5.058594 -5.609375 3.476562 -5.609375 C 1.898438 -5.609375 0.617188 -4.328125 0.617188 -2.75 C 0.617188 -1.167969 1.898438 0.109375 3.476562 0.109375 Z M 3.476562 -0.742188 C 2.363281 -0.742188 1.46875 -1.636719 1.46875 -2.75 C 1.46875 -3.863281 2.363281 -4.753906 3.476562 -4.753906 C 4.578125 -4.753906 5.484375 -3.863281 5.484375 -2.75 C 5.484375 -1.636719 4.578125 -0.742188 3.476562 -0.742188 Z M 3.476562 -0.742188 "/></g></g></g><g fill="#000000" fill-opacity="1"><g transform="translate(240.576815, 297.521083)"><g><path d="M 5.484375 -10.117188 L 5.484375 -4.78125 C 4.960938 -5.292969 4.261719 -5.609375 3.476562 -5.609375 C 1.898438 -5.609375 0.617188 -4.328125 0.617188 -2.75 C 0.617188 -1.167969 1.898438 0.109375 3.476562 0.109375 C 4.261719 0.109375 4.960938 -0.207031 5.484375 -0.714844 L 5.484375 0 L 6.335938 0 L 6.335938 -10.117188 Z M 3.476562 -0.742188 C 2.363281 -0.742188 1.46875 -1.636719 1.46875 -2.75 C 1.46875 -3.863281 2.363281 -4.753906 3.476562 -4.753906 C 4.578125 -4.753906 5.484375 -3.863281 5.484375 -2.75 C 5.484375 -1.636719 4.578125 -0.742188 3.476562 -0.742188 Z M 3.476562 -0.742188 "/></g></g></g><g fill="#000000" fill-opacity="1"><g transform="translate(251.599191, 297.521083)"><g><path d="M 1.539062 -6.527344 C 1.855469 -6.527344 2.128906 -6.789062 2.128906 -7.105469 C 2.128906 -7.449219 1.855469 -7.695312 1.539062 -7.695312 C 1.210938 -7.695312 0.933594 -7.449219 0.933594 -7.105469 C 0.933594 -6.789062 1.210938 -6.527344 1.539062 -6.527344 Z M 1.113281 0 L 1.964844 0 L 1.964844 -5.496094 L 1.113281 -5.496094 Z M 1.113281 0 "/></g></g></g><g fill="#000000" fill-opacity="1"><g transform="translate(258.348344, 297.521083)"><g><path d="M 3.1875 -5.609375 C 2.679688 -5.609375 2.210938 -5.402344 1.855469 -5.058594 L 1.855469 -5.496094 L 1.003906 -5.496094 L 1.003906 0 L 1.855469 0 L 1.855469 -3.503906 C 1.855469 -4.207031 2.417969 -4.753906 3.121094 -4.753906 C 3.820312 -4.753906 4.371094 -4.207031 4.371094 -3.503906 L 4.371094 0 L 5.222656 0 L 5.222656 -3.503906 C 5.222656 -4.671875 4.246094 -5.609375 3.1875 -5.609375 Z M 3.1875 -5.609375 "/></g></g></g><g fill="#000000" fill-opacity="1"><g transform="translate(268.189049, 297.521083)"><g><path d="M 5.46875 -5.496094 L 5.46875 -4.808594 C 4.960938 -5.304688 4.246094 -5.609375 3.476562 -5.609375 C 1.898438 -5.609375 0.617188 -4.34375 0.617188 -2.75 C 0.617188 -1.167969 1.898438 0.109375 3.476562 0.109375 C 4.261719 0.109375 4.960938 -0.207031 5.484375 -0.714844 L 5.484375 0.480469 C 5.484375 1.582031 4.578125 2.488281 3.476562 2.488281 C 2.582031 2.488281 1.828125 1.898438 1.566406 1.097656 L 0.785156 1.441406 C 1.183594 2.554688 2.238281 3.339844 3.476562 3.339844 C 5.058594 3.339844 6.335938 2.0625 6.335938 0.480469 L 6.335938 -5.496094 Z M 3.476562 -0.742188 C 2.363281 -0.742188 1.46875 -1.648438 1.46875 -2.75 C 1.46875 -3.863281 2.363281 -4.753906 3.476562 -4.753906 C 4.578125 -4.753906 5.484375 -3.863281 5.484375 -2.75 C 5.484375 -1.648438 4.578125 -0.742188 3.476562 -0.742188 Z M 3.476562 -0.742188 "/></g></g></g><g fill="#000000" fill-opacity="1"><g transform="translate(157.081436, 312.521082)"><g><path d="M 3.957031 -8.246094 L 1.003906 -8.246094 L 1.003906 0 L 1.882812 0 L 1.882812 -3.667969 L 3.957031 -3.667969 C 5.238281 -3.667969 6.253906 -4.671875 6.253906 -5.949219 C 6.253906 -7.214844 5.238281 -8.246094 3.957031 -8.246094 Z M 3.875 -4.507812 L 1.882812 -4.507812 L 1.882812 -7.394531 L 3.875 -7.394531 C 4.699219 -7.394531 5.375 -6.816406 5.375 -5.9375 C 5.375 -5.03125 4.699219 -4.507812 3.875 -4.507812 Z M 3.875 -4.507812 "/></g></g></g><g fill="#000000" fill-opacity="1"><g transform="translate(167.251909, 312.521082)"><g><path d="M 3.683594 -5.609375 C 2.898438 -5.609375 2.269531 -5.265625 1.855469 -4.714844 L 1.855469 -5.496094 L 1.003906 -5.496094 L 1.003906 0 L 1.855469 0 L 1.855469 -2.980469 C 1.855469 -3.984375 2.679688 -4.753906 3.683594 -4.753906 C 3.847656 -4.753906 3.984375 -4.742188 4.109375 -4.699219 L 4.109375 -5.566406 C 3.984375 -5.59375 3.847656 -5.609375 3.683594 -5.609375 Z M 3.683594 -5.609375 "/></g></g></g><g fill="#000000" fill-opacity="1"><g transform="translate(175.114028, 312.521082)"><g><path d="M 3.476562 0.109375 C 5.058594 0.109375 6.335938 -1.167969 6.335938 -2.75 C 6.335938 -4.328125 5.058594 -5.609375 3.476562 -5.609375 C 1.898438 -5.609375 0.617188 -4.328125 0.617188 -2.75 C 0.617188 -1.167969 1.898438 0.109375 3.476562 0.109375 Z M 3.476562 -0.742188 C 2.363281 -0.742188 1.46875 -1.636719 1.46875 -2.75 C 1.46875 -3.863281 2.363281 -4.753906 3.476562 -4.753906 C 4.578125 -4.753906 5.484375 -3.863281 5.484375 -2.75 C 5.484375 -1.636719 4.578125 -0.742188 3.476562 -0.742188 Z M 3.476562 -0.742188 "/></g></g></g><g fill="#000000" fill-opacity="1"><g transform="translate(185.751671, 312.521082)"><g><path d="M 1.539062 -6.527344 C 1.855469 -6.527344 2.128906 -6.789062 2.128906 -7.105469 C 2.128906 -7.449219 1.855469 -7.695312 1.539062 -7.695312 C 1.222656 -7.695312 0.949219 -7.449219 0.949219 -7.105469 C 0.949219 -6.789062 1.222656 -6.527344 1.539062 -6.527344 Z M 0.398438 3.296875 C 1.25 3.296875 1.964844 2.609375 1.964844 1.746094 L 1.964844 -5.496094 L 1.113281 -5.496094 L 1.113281 1.636719 C 1.113281 2.144531 0.726562 2.472656 0.289062 2.472656 L -0.328125 2.460938 L -0.328125 3.121094 C -0.191406 3.214844 0.109375 3.296875 0.398438 3.296875 Z M 0.398438 3.296875 "/></g></g></g><g fill="#000000" fill-opacity="1"><g transform="translate(192.514574, 312.521082)"><g><path d="M 6.335938 -2.804688 C 6.292969 -4.382812 5.042969 -5.609375 3.476562 -5.609375 C 1.898438 -5.609375 0.617188 -4.328125 0.617188 -2.75 C 0.617188 -1.167969 1.898438 0.109375 3.476562 0.109375 C 4.78125 0.109375 5.867188 -0.757812 6.226562 -1.9375 L 5.320312 -1.9375 C 5.015625 -1.222656 4.300781 -0.742188 3.476562 -0.742188 C 2.390625 -0.742188 1.527344 -1.566406 1.46875 -2.625 L 6.320312 -2.625 Z M 3.476562 -4.753906 C 4.355469 -4.753906 5.097656 -4.191406 5.359375 -3.394531 L 1.582031 -3.394531 C 1.855469 -4.191406 2.597656 -4.753906 3.476562 -4.753906 Z M 3.476562 -4.753906 "/></g></g></g><g fill="#000000" fill-opacity="1"><g transform="translate(203.097263, 312.521082)"><g><path d="M 3.476562 0.109375 C 4.753906 0.109375 5.828125 -0.714844 6.199219 -1.871094 L 5.292969 -1.871094 C 4.960938 -1.195312 4.273438 -0.742188 3.476562 -0.742188 C 2.363281 -0.742188 1.46875 -1.621094 1.46875 -2.75 C 1.46875 -3.875 2.363281 -4.753906 3.476562 -4.753906 C 4.273438 -4.753906 4.960938 -4.300781 5.292969 -3.628906 L 6.199219 -3.628906 C 5.828125 -4.78125 4.753906 -5.609375 3.476562 -5.609375 C 1.898438 -5.609375 0.617188 -4.328125 0.617188 -2.75 C 0.617188 -1.167969 1.898438 0.109375 3.476562 0.109375 Z M 3.476562 0.109375 "/></g></g></g><g fill="#000000" fill-opacity="1"><g transform="translate(213.336445, 312.521082)"><g><path d="M 3.53125 -4.671875 L 3.53125 -5.496094 L 2.0625 -5.496094 L 2.0625 -7.890625 L 1.210938 -7.890625 L 1.210938 -5.496094 L 0.289062 -5.496094 L 0.289062 -4.671875 L 1.210938 -4.671875 L 1.210938 -1.441406 C 1.210938 -0.578125 1.9375 0.109375 2.789062 0.109375 C 3.066406 0.109375 3.367188 0.0273438 3.519531 -0.0703125 L 3.519531 -0.714844 L 2.886719 -0.714844 C 2.445312 -0.714844 2.0625 -1.042969 2.0625 -1.554688 L 2.0625 -4.671875 Z M 3.53125 -4.671875 "/></g></g></g></svg>