<svg xmlns="http://www.w3.org/2000/svg" xmlns:xlink="http://www.w3.org/1999/xlink" width="500" zoomAndPan="magnify" viewBox="0 0 375 374.999991" height="500" preserveAspectRatio="xMidYMid meet" version="1.0"><defs><g/><clipPath id="id1"><path d="M 84.421875 113 L 186 113 L 186 202.613281 L 84.421875 202.613281 Z M 84.421875 113 " clip-rule="nonzero"/></clipPath><clipPath id="id2"><path d="M 185 66.863281 L 286.171875 66.863281 L 286.171875 156 L 185 156 Z M 185 66.863281 " clip-rule="nonzero"/></clipPath></defs><g clip-path="url(#id1)"><path fill="#0652e9" d="M 152.351562 176.605469 L 152.351562 188.890625 L 96.742188 163.039062 L 96.742188 153.070312 L 152.351562 127.21875 L 152.351562 139.507812 L 110.296875 157.941406 L 110.296875 158.171875 Z M 185.382812 113.566406 L 92.378906 113.566406 C 87.988281 113.566406 84.429688 117.128906 84.429688 121.523438 L 84.429688 194.589844 C 84.429688 198.984375 87.988281 202.546875 92.378906 202.546875 L 159.5625 202.546875 L 185.382812 113.566406 " fill-opacity="1" fill-rule="nonzero"/></g><g clip-path="url(#id2)"><path fill="#7ed957" d="M 273.871094 116.726562 L 218.261719 142.230469 L 218.261719 129.941406 L 261.242188 111.511719 L 261.242188 111.277344 L 218.261719 92.84375 L 218.261719 80.558594 L 273.871094 106.0625 Z M 211.199219 66.90625 L 185.382812 155.882812 L 278.234375 155.882812 C 282.625 155.882812 286.183594 152.324219 286.183594 147.925781 L 286.183594 74.859375 C 286.183594 70.46875 282.625 66.90625 278.234375 66.90625 L 211.199219 66.90625 " fill-opacity="1" fill-rule="nonzero"/></g><g fill="#000000" fill-opacity="1"><g transform="translate(93.83531, 259.769835)"><g><path d="M 18.023438 -20.523438 L 18.023438 -25.441406 L 2.714844 -25.441406 L 2.714844 0 L 8.3125 0 L 8.3125 -10.261719 L 16.621094 -10.261719 L 16.621094 -15.179688 L 8.3125 -15.179688 L 8.3125 -20.523438 Z M 18.023438 -20.523438 "/></g></g></g><g fill="#000000" fill-opacity="1"><g transform="translate(113.772912, 259.769835)"><g><path d="M 2.714844 0 L 8.3125 0 L 8.3125 -25.441406 L 2.714844 -25.441406 Z M 2.714844 0 "/></g></g></g><g fill="#000000" fill-opacity="1"><g transform="translate(126.247782, 259.769835)"><g><path d="M 20.480469 -25.441406 L 2.035156 -25.441406 L 2.035156 -20.480469 L 11.789062 -20.480469 L 0.976562 0 L 20.480469 0 L 20.480469 -4.960938 L 9.753906 -4.960938 Z M 20.480469 -25.441406 "/></g></g></g><g fill="#000000" fill-opacity="1"><g transform="translate(149.450331, 259.769835)"><g><path d="M 20.480469 -25.441406 L 2.035156 -25.441406 L 2.035156 -20.480469 L 11.789062 -20.480469 L 0.976562 0 L 20.480469 0 L 20.480469 -4.960938 L 9.753906 -4.960938 Z M 20.480469 -25.441406 "/></g></g></g><g fill="#000000" fill-opacity="1"><g transform="translate(172.652883, 259.769835)"><g/></g></g><g fill="#000000" fill-opacity="1"><g transform="translate(184.322111, 259.769835)"><g><path d="M 17.808594 -12.890625 C 19.71875 -13.910156 20.949219 -15.691406 20.949219 -18.359375 C 20.949219 -22.855469 17.554688 -25.441406 13.273438 -25.441406 L 2.5 -25.441406 L 2.5 0 L 14.246094 0 C 18.488281 0 21.796875 -2.460938 21.796875 -6.953125 C 21.796875 -10.050781 20.183594 -11.957031 17.808594 -12.890625 Z M 15.351562 -17.765625 C 15.351562 -16.28125 14.121094 -15.011719 12.59375 -15.011719 L 8.097656 -15.011719 L 8.097656 -20.480469 L 12.59375 -20.480469 C 14.121094 -20.480469 15.351562 -19.292969 15.351562 -17.765625 Z M 13.441406 -4.960938 L 8.097656 -4.960938 L 8.097656 -10.429688 L 13.441406 -10.429688 C 15.011719 -10.429688 16.199219 -9.160156 16.199219 -7.675781 C 16.199219 -6.148438 15.011719 -4.960938 13.441406 -4.960938 Z M 13.441406 -4.960938 "/></g></g></g><g fill="#000000" fill-opacity="1"><g transform="translate(208.839129, 259.769835)"><g><path d="M 12.933594 0.339844 C 18.953125 0.339844 23.535156 -3.351562 23.535156 -8.140625 L 23.535156 -25.441406 L 17.9375 -25.441406 L 17.9375 -9.203125 C 17.9375 -6.613281 15.773438 -4.621094 12.933594 -4.621094 C 10.132812 -4.621094 7.972656 -6.613281 7.972656 -9.203125 L 7.972656 -25.441406 L 2.375 -25.441406 L 2.375 -8.140625 C 2.375 -3.351562 6.996094 0.339844 12.933594 0.339844 Z M 12.933594 0.339844 "/></g></g></g><g fill="#000000" fill-opacity="1"><g transform="translate(236.23946, 259.769835)"><g><path d="M 20.480469 -25.441406 L 2.035156 -25.441406 L 2.035156 -20.480469 L 11.789062 -20.480469 L 0.976562 0 L 20.480469 0 L 20.480469 -4.960938 L 9.753906 -4.960938 Z M 20.480469 -25.441406 "/></g></g></g><g fill="#000000" fill-opacity="1"><g transform="translate(259.442012, 259.769835)"><g><path d="M 20.480469 -25.441406 L 2.035156 -25.441406 L 2.035156 -20.480469 L 11.789062 -20.480469 L 0.976562 0 L 20.480469 0 L 20.480469 -4.960938 L 9.753906 -4.960938 Z M 20.480469 -25.441406 "/></g></g></g><g fill="#000000" fill-opacity="1"><g transform="translate(95.948158, 298.921065)"><g><path d="M 6.523438 0 L 7.574219 0 L 4.320312 -9 L 3.253906 -9 L 0 0 L 1.050781 0 L 1.785156 -2.101562 L 5.789062 -2.101562 Z M 2.101562 -3.015625 L 3.796875 -7.859375 L 5.476562 -3.015625 Z M 2.101562 -3.015625 "/></g></g></g><g fill="#000000" fill-opacity="1"><g transform="translate(107.543225, 298.921065)"><g/></g></g><g fill="#000000" fill-opacity="1"><g transform="translate(115.178293, 298.921065)"><g><path d="M 5.355469 0.121094 C 7.078125 0.121094 8.578125 -0.824219 9.375 -2.21875 L 8.550781 -2.683594 C 7.933594 -1.574219 6.734375 -0.839844 5.355469 -0.839844 C 3.328125 -0.839844 1.695312 -2.460938 1.695312 -4.5 C 1.695312 -6.539062 3.328125 -8.160156 5.355469 -8.160156 C 6.734375 -8.160156 7.933594 -7.425781 8.550781 -6.316406 L 9.375 -6.78125 C 8.578125 -8.175781 7.078125 -9.121094 5.355469 -9.121094 C 2.804688 -9.121094 0.734375 -7.050781 0.734375 -4.5 C 0.734375 -1.949219 2.804688 0.121094 5.355469 0.121094 Z M 5.355469 0.121094 "/></g></g></g><g fill="#000000" fill-opacity="1"><g transform="translate(129.068358, 298.921065)"><g><path d="M 5.355469 0.121094 C 7.921875 0.121094 9.976562 -1.949219 9.976562 -4.5 C 9.976562 -7.050781 7.921875 -9.121094 5.355469 -9.121094 C 2.804688 -9.121094 0.734375 -7.050781 0.734375 -4.5 C 0.734375 -1.949219 2.804688 0.121094 5.355469 0.121094 Z M 5.355469 -0.839844 C 3.328125 -0.839844 1.695312 -2.460938 1.695312 -4.5 C 1.695312 -6.539062 3.328125 -8.160156 5.355469 -8.160156 C 7.394531 -8.160156 9.015625 -6.539062 9.015625 -4.5 C 9.015625 -2.460938 7.394531 -0.839844 5.355469 -0.839844 Z M 5.355469 -0.839844 "/></g></g></g><g fill="#000000" fill-opacity="1"><g transform="translate(143.813423, 298.921065)"><g><path d="M 1.09375 0 L 3.554688 0 C 6.03125 0 8.054688 -2.011719 8.054688 -4.5 C 8.054688 -6.988281 6.03125 -9 3.554688 -9 L 1.09375 -9 Z M 2.039062 -0.960938 L 2.039062 -8.039062 L 3.539062 -8.039062 C 5.535156 -8.039062 7.09375 -6.523438 7.09375 -4.5 C 7.09375 -2.476562 5.535156 -0.960938 3.539062 -0.960938 Z M 2.039062 -0.960938 "/></g></g></g><g fill="#000000" fill-opacity="1"><g transform="translate(156.623487, 298.921065)"><g><path d="M 1.171875 0 L 2.128906 0 L 2.128906 -9 L 1.171875 -9 Z M 1.171875 0 "/></g></g></g><g fill="#000000" fill-opacity="1"><g transform="translate(163.928554, 298.921065)"><g><path d="M 7.558594 -9 L 7.558594 -1.605469 L 1.996094 -9 L 1.09375 -9 L 1.09375 0 L 2.054688 0 L 2.054688 -7.394531 L 7.605469 0 L 8.503906 0 L 8.503906 -9 Z M 7.558594 -9 "/></g></g></g><g fill="#000000" fill-opacity="1"><g transform="translate(177.548619, 298.921065)"><g><path d="M 5.386719 -4.769531 L 5.386719 -3.871094 L 9 -3.871094 C 8.714844 -2.128906 7.214844 -0.839844 5.398438 -0.839844 C 3.375 -0.839844 1.738281 -2.460938 1.738281 -4.5 C 1.738281 -6.539062 3.375 -8.160156 5.398438 -8.160156 C 6.765625 -8.160156 7.964844 -7.425781 8.578125 -6.316406 L 9.40625 -6.78125 C 8.625 -8.175781 7.125 -9.121094 5.398438 -9.121094 C 2.835938 -9.121094 0.78125 -7.050781 0.78125 -4.5 C 0.78125 -1.949219 2.835938 0.121094 5.398438 0.121094 C 7.949219 0.121094 10.019531 -1.949219 10.019531 -4.5 L 10.019531 -4.769531 Z M 5.386719 -4.769531 "/></g></g></g><g fill="#000000" fill-opacity="1"><g transform="translate(192.353684, 298.921065)"><g/></g></g><g fill="#000000" fill-opacity="1"><g transform="translate(199.988747, 298.921065)"><g><path d="M 4.320312 -9 L 1.09375 -9 L 1.09375 0 L 2.054688 0 L 2.054688 -4.003906 L 4.320312 -4.003906 C 5.714844 -4.003906 6.824219 -5.101562 6.824219 -6.496094 C 6.824219 -7.875 5.714844 -9 4.320312 -9 Z M 4.230469 -4.921875 L 2.054688 -4.921875 L 2.054688 -8.070312 L 4.230469 -8.070312 C 5.128906 -8.070312 5.863281 -7.441406 5.863281 -6.480469 C 5.863281 -5.488281 5.128906 -4.921875 4.230469 -4.921875 Z M 4.230469 -4.921875 "/></g></g></g><g fill="#000000" fill-opacity="1"><g transform="translate(211.088806, 298.921065)"><g><path d="M 4.738281 -4.109375 C 5.925781 -4.273438 6.824219 -5.265625 6.824219 -6.480469 C 6.824219 -7.890625 5.699219 -9 4.320312 -9 L 1.09375 -9 L 1.09375 0 L 2.054688 0 L 2.054688 -4.066406 L 3.75 -4.066406 L 6.300781 0 L 7.394531 0 Z M 2.054688 -4.980469 L 2.054688 -8.039062 L 4.261719 -8.039062 C 5.160156 -8.039062 5.863281 -7.410156 5.863281 -6.511719 C 5.863281 -5.59375 5.175781 -4.980469 4.261719 -4.980469 Z M 2.054688 -4.980469 "/></g></g></g><g fill="#000000" fill-opacity="1"><g transform="translate(222.638869, 298.921065)"><g><path d="M 5.355469 0.121094 C 7.921875 0.121094 9.976562 -1.949219 9.976562 -4.5 C 9.976562 -7.050781 7.921875 -9.121094 5.355469 -9.121094 C 2.804688 -9.121094 0.734375 -7.050781 0.734375 -4.5 C 0.734375 -1.949219 2.804688 0.121094 5.355469 0.121094 Z M 5.355469 -0.839844 C 3.328125 -0.839844 1.695312 -2.460938 1.695312 -4.5 C 1.695312 -6.539062 3.328125 -8.160156 5.355469 -8.160156 C 7.394531 -8.160156 9.015625 -6.539062 9.015625 -4.5 C 9.015625 -2.460938 7.394531 -0.839844 5.355469 -0.839844 Z M 5.355469 -0.839844 "/></g></g></g><g fill="#000000" fill-opacity="1"><g transform="translate(237.383939, 298.921065)"><g><path d="M 5.039062 -9 L 0.914062 -9 L 0.914062 -8.039062 L 4.078125 -8.039062 L 4.078125 -2.28125 C 4.078125 -1.394531 3.523438 -0.839844 2.761719 -0.839844 C 2.070312 -0.839844 1.546875 -1.320312 1.46875 -2.070312 L 0.496094 -1.859375 C 0.628906 -0.628906 1.5 0.121094 2.761719 0.121094 C 4.125 0.121094 5.039062 -0.765625 5.039062 -2.175781 Z M 5.039062 -9 "/></g></g></g><g fill="#000000" fill-opacity="1"><g transform="translate(247.344006, 298.921065)"><g><path d="M 6.089844 -8.070312 L 6.089844 -9 L 1.171875 -9 L 1.171875 0 L 6.089844 0 L 6.089844 -0.929688 L 2.128906 -0.929688 L 2.128906 -4.035156 L 5.578125 -4.035156 L 5.578125 -4.964844 L 2.128906 -4.964844 L 2.128906 -8.070312 Z M 6.089844 -8.070312 "/></g></g></g><g fill="#000000" fill-opacity="1"><g transform="translate(258.354069, 298.921065)"><g><path d="M 5.355469 0.121094 C 7.078125 0.121094 8.578125 -0.824219 9.375 -2.21875 L 8.550781 -2.683594 C 7.933594 -1.574219 6.734375 -0.839844 5.355469 -0.839844 C 3.328125 -0.839844 1.695312 -2.460938 1.695312 -4.5 C 1.695312 -6.539062 3.328125 -8.160156 5.355469 -8.160156 C 6.734375 -8.160156 7.933594 -7.425781 8.550781 -6.316406 L 9.375 -6.78125 C 8.578125 -8.175781 7.078125 -9.121094 5.355469 -9.121094 C 2.804688 -9.121094 0.734375 -7.050781 0.734375 -4.5 C 0.734375 -1.949219 2.804688 0.121094 5.355469 0.121094 Z M 5.355469 0.121094 "/></g></g></g><g fill="#000000" fill-opacity="1"><g transform="translate(272.244129, 298.921065)"><g><path d="M 6.074219 -9 L 0.136719 -9 L 0.136719 -8.039062 L 2.625 -8.039062 L 2.625 0 L 3.585938 0 L 3.585938 -8.039062 L 6.074219 -8.039062 Z M 6.074219 -9 "/></g></g></g></svg>